<svg width="40" height="40" viewBox="0 0 40 40" fill="none" xmlns="http://www.w3.org/2000/svg">
<path d="M2.88508 26.5035C2.63228 26.312 2.66855 25.9944 2.66855 25.9944L4.06908 9.33335C4.06908 9.33335 4.09095 9.14988 4.17255 9.05602C4.22402 8.99735 4.28908 8.91202 4.41175 8.86188C5.82028 8.28588 13.4766 4.13842 17.3334 8.00002C17.9726 8.74055 18.6664 9.83362 18.6664 10.6667V24.7677C18.6664 24.7677 18.683 25.0669 18.4123 25.248C18.3486 25.2907 18.0816 25.4123 17.767 25.2549C11.8328 22.2859 5.20428 25.6672 3.53202 26.5539C3.19655 26.7317 2.93495 26.5416 2.88508 26.5035ZM36.4678 26.5539C34.7955 25.6672 28.167 22.2859 22.2328 25.2549C21.9182 25.4123 21.6512 25.2907 21.5875 25.248C21.3171 25.0669 21.3336 24.7677 21.3336 24.7677V10.6667C21.3336 9.83362 22.0275 8.74055 22.6667 8.00002C26.5235 4.13842 34.131 8.28562 35.5395 8.86188C35.6622 8.91202 35.7272 8.99735 35.7787 9.05602C35.8603 9.14988 35.8822 9.33335 35.8822 9.33335L37.3315 25.9944C37.3315 25.9944 37.3678 26.312 37.115 26.5035C37.0651 26.5416 36.8035 26.7317 36.4678 26.5539ZM23.6392 33.8302C23.7331 33.8075 23.8963 33.712 23.9536 33.6235C24.0166 33.5264 24.0544 33.459 24.0664 33.3333C24.1984 30.8323 28.3984 28.5016 36.4603 33.2539C36.667 33.3715 36.9046 33.3595 37.107 33.2126C37.3371 33.0454 37.3334 32.7624 37.3334 32.7624V31.2845C37.3334 31.2845 37.3342 31.0808 37.2608 30.9688C37.2062 30.8856 37.1339 30.7973 37.0139 30.74C31.6128 27.2347 24.7851 25.6808 21.3195 30.3155C21.2712 30.4283 21.2254 30.479 21.1254 30.5568C20.9744 30.6742 20.7904 30.6667 20.7904 30.6667H19.2291C19.2291 30.6667 19.0451 30.6742 18.8942 30.5568C18.7942 30.479 18.7483 30.4283 18.7 30.3155C15.2344 25.6808 8.40668 27.1614 3.00562 30.6667C2.88562 30.724 2.81335 30.8123 2.75868 30.8955C2.68535 31.0075 2.68615 31.2112 2.68615 31.2112V32.6891C2.68615 32.6891 2.68242 32.972 2.91255 33.1392C3.11495 33.2861 3.35255 33.2982 3.55922 33.1805C11.6211 28.4283 15.8211 30.8323 15.9531 33.3333C15.9651 33.459 16.003 33.5264 16.0659 33.6235C16.1232 33.712 16.2864 33.8075 16.3803 33.8302C18.3054 34.3083 21.0966 34.4968 23.6392 33.8302Z" fill="white" stroke="white" stroke-width="0.0009"/>
</svg>
