<svg width="38" height="38" viewBox="0 0 38 38" fill="none" xmlns="http://www.w3.org/2000/svg">
<path d="M19.0001 0.666687C15.3741 0.666687 11.8295 1.74192 8.81464 3.75641C5.79973 5.7709 3.4499 8.63418 2.0623 11.9842C0.674692 15.3341 0.31163 19.0204 1.01903 22.5767C1.72642 26.133 3.4725 29.3997 6.03647 31.9636C8.60043 34.5276 11.8671 36.2737 15.4234 36.9811C18.9798 37.6885 22.666 37.3254 26.016 35.9378C29.3659 34.5502 32.2292 32.2004 34.2437 29.1855C36.2582 26.1706 37.3334 22.626 37.3334 19C37.3277 14.1395 35.3943 9.47965 31.9574 6.04273C28.5205 2.6058 23.8606 0.672421 19.0001 0.666687ZM19.0001 34C16.0334 34 13.1333 33.1203 10.6665 31.4721C8.1998 29.8238 6.27721 27.4812 5.1419 24.7403C4.00658 21.9994 3.70953 18.9834 4.28831 16.0737C4.86709 13.164 6.2957 10.4912 8.39349 8.39342C10.4913 6.29563 13.164 4.86702 16.0737 4.28824C18.9834 3.70946 21.9994 4.00651 24.7403 5.14183C27.4812 6.27714 29.8239 8.19973 31.4721 10.6665C33.1204 13.1332 34.0001 16.0333 34.0001 19C33.9952 22.9768 32.4133 26.7893 29.6013 29.6013C26.7893 32.4133 22.9768 33.9952 19.0001 34ZM20.6668 26.5V29.8334H17.3334V26.5H20.6668ZM25.6668 14.8334C25.6686 15.8329 25.4447 16.82 25.0118 17.7209C24.5789 18.6219 23.9482 19.4135 23.1668 20.0367C21.9044 21.0149 21.0508 22.4275 20.7718 24H17.3851C17.5325 22.7151 17.9356 21.4726 18.5708 20.346C19.206 19.2193 20.0603 18.2312 21.0834 17.44C21.494 17.1114 21.821 16.6903 22.0377 16.2112C22.2544 15.732 22.3547 15.2083 22.3303 14.683C22.3059 14.1577 22.1576 13.6456 21.8974 13.1885C21.6373 12.7315 21.2727 12.3425 20.8334 12.0534C20.3439 11.7334 19.7806 11.5439 19.1971 11.5031C18.6137 11.4622 18.0295 11.5713 17.5001 11.82C16.9354 12.0907 16.4615 12.5196 16.1361 13.0545C15.8106 13.5895 15.6475 14.2075 15.6668 14.8334C15.6668 15.2754 15.4912 15.6993 15.1786 16.0119C14.866 16.3244 14.4421 16.5 14.0001 16.5C13.5581 16.5 13.1341 16.3244 12.8216 16.0119C12.509 15.6993 12.3334 15.2754 12.3334 14.8334C12.3086 13.5524 12.6621 12.2926 13.3495 11.2115C14.037 10.1303 15.0279 9.2759 16.1984 8.75502C17.236 8.29132 18.3737 8.09635 19.5064 8.1881C20.6392 8.27985 21.7307 8.65537 22.6801 9.28002C23.5975 9.88734 24.3504 10.7123 24.8715 11.6813C25.3926 12.6502 25.6658 13.7331 25.6668 14.8334Z" fill="white"/>
</svg>
