<svg width="289" height="85" viewBox="0 0 289 85" fill="none" xmlns="http://www.w3.org/2000/svg">
<path d="M84.524 18.94V25.24H92.984V29.236H84.524V35.896H94.064V40H79.484V14.836H94.064V18.94H84.524ZM97.3482 29.956C97.3482 27.94 97.7442 26.152 98.5362 24.592C99.3522 23.032 100.456 21.832 101.848 20.992C103.24 20.152 104.788 19.732 106.492 19.732C107.788 19.732 109.024 20.02 110.2 20.596C111.376 21.148 112.312 21.892 113.008 22.828V13.36H118.12V40H113.008V37.048C112.384 38.032 111.508 38.824 110.38 39.424C109.252 40.024 107.944 40.324 106.456 40.324C104.776 40.324 103.24 39.892 101.848 39.028C100.456 38.164 99.3522 36.952 98.5362 35.392C97.7442 33.808 97.3482 31.996 97.3482 29.956ZM113.044 30.028C113.044 28.804 112.804 27.76 112.324 26.896C111.844 26.008 111.196 25.336 110.38 24.88C109.564 24.4 108.688 24.16 107.752 24.16C106.816 24.16 105.952 24.388 105.16 24.844C104.368 25.3 103.72 25.972 103.216 26.86C102.736 27.724 102.496 28.756 102.496 29.956C102.496 31.156 102.736 32.212 103.216 33.124C103.72 34.012 104.368 34.696 105.16 35.176C105.976 35.656 106.84 35.896 107.752 35.896C108.688 35.896 109.564 35.668 110.38 35.212C111.196 34.732 111.844 34.06 112.324 33.196C112.804 32.308 113.044 31.252 113.044 30.028ZM141.871 20.056V40H136.795V37.48C136.147 38.344 135.295 39.028 134.239 39.532C133.207 40.012 132.079 40.252 130.855 40.252C129.295 40.252 127.915 39.928 126.715 39.28C125.515 38.608 124.567 37.636 123.871 36.364C123.199 35.068 122.863 33.532 122.863 31.756V20.056H127.903V31.036C127.903 32.62 128.299 33.844 129.091 34.708C129.883 35.548 130.963 35.968 132.331 35.968C133.723 35.968 134.815 35.548 135.607 34.708C136.399 33.844 136.795 32.62 136.795 31.036V20.056H141.871ZM155.519 40.252C153.767 40.252 152.183 39.952 150.767 39.352C149.375 38.752 148.271 37.888 147.455 36.76C146.639 35.632 146.219 34.3 146.195 32.764H151.595C151.667 33.796 152.027 34.612 152.675 35.212C153.347 35.812 154.259 36.112 155.411 36.112C156.587 36.112 157.511 35.836 158.183 35.284C158.855 34.708 159.191 33.964 159.191 33.052C159.191 32.308 158.963 31.696 158.507 31.216C158.051 30.736 157.475 30.364 156.779 30.1C156.107 29.812 155.171 29.5 153.971 29.164C152.339 28.684 151.007 28.216 149.975 27.76C148.967 27.28 148.091 26.572 147.347 25.636C146.627 24.676 146.267 23.404 146.267 21.82C146.267 20.332 146.639 19.036 147.383 17.932C148.127 16.828 149.171 15.988 150.515 15.412C151.859 14.812 153.395 14.512 155.123 14.512C157.715 14.512 159.815 15.148 161.423 16.42C163.055 17.668 163.955 19.42 164.123 21.676H158.579C158.531 20.812 158.159 20.104 157.463 19.552C156.791 18.976 155.891 18.688 154.763 18.688C153.779 18.688 152.987 18.94 152.387 19.444C151.811 19.948 151.523 20.68 151.523 21.64C151.523 22.312 151.739 22.876 152.171 23.332C152.627 23.764 153.179 24.124 153.827 24.412C154.499 24.676 155.435 24.988 156.635 25.348C158.267 25.828 159.599 26.308 160.631 26.788C161.663 27.268 162.551 27.988 163.295 28.948C164.039 29.908 164.411 31.168 164.411 32.728C164.411 34.072 164.063 35.32 163.367 36.472C162.671 37.624 161.651 38.548 160.307 39.244C158.963 39.916 157.367 40.252 155.519 40.252ZM167.485 30.028C167.485 27.964 167.905 26.164 168.745 24.628C169.585 23.068 170.749 21.868 172.237 21.028C173.725 20.164 175.429 19.732 177.349 19.732C179.821 19.732 181.861 20.356 183.469 21.604C185.101 22.828 186.193 24.556 186.745 26.788H181.309C181.021 25.924 180.529 25.252 179.833 24.772C179.161 24.268 178.321 24.016 177.313 24.016C175.873 24.016 174.733 24.544 173.893 25.6C173.053 26.632 172.633 28.108 172.633 30.028C172.633 31.924 173.053 33.4 173.893 34.456C174.733 35.488 175.873 36.004 177.313 36.004C179.353 36.004 180.685 35.092 181.309 33.268H186.745C186.193 35.428 185.101 37.144 183.469 38.416C181.837 39.688 179.797 40.324 177.349 40.324C175.429 40.324 173.725 39.904 172.237 39.064C170.749 38.2 169.585 37 168.745 35.464C167.905 33.904 167.485 32.092 167.485 30.028ZM192.993 17.68C192.105 17.68 191.361 17.404 190.761 16.852C190.185 16.276 189.897 15.568 189.897 14.728C189.897 13.888 190.185 13.192 190.761 12.64C191.361 12.064 192.105 11.776 192.993 11.776C193.881 11.776 194.613 12.064 195.189 12.64C195.789 13.192 196.089 13.888 196.089 14.728C196.089 15.568 195.789 16.276 195.189 16.852C194.613 17.404 193.881 17.68 192.993 17.68ZM195.477 20.056V40H190.437V20.056H195.477ZM218.997 29.596C218.997 30.316 218.949 30.964 218.853 31.54H204.273C204.393 32.98 204.897 34.108 205.785 34.924C206.673 35.74 207.765 36.148 209.061 36.148C210.933 36.148 212.265 35.344 213.057 33.736H218.493C217.917 35.656 216.813 37.24 215.181 38.488C213.549 39.712 211.545 40.324 209.169 40.324C207.249 40.324 205.521 39.904 203.985 39.064C202.473 38.2 201.285 36.988 200.421 35.428C199.581 33.868 199.161 32.068 199.161 30.028C199.161 27.964 199.581 26.152 200.421 24.592C201.261 23.032 202.437 21.832 203.949 20.992C205.461 20.152 207.201 19.732 209.169 19.732C211.065 19.732 212.757 20.14 214.245 20.956C215.757 21.772 216.921 22.936 217.737 24.448C218.577 25.936 218.997 27.652 218.997 29.596ZM213.777 28.156C213.753 26.86 213.285 25.828 212.373 25.06C211.461 24.268 210.345 23.872 209.025 23.872C207.777 23.872 206.721 24.256 205.857 25.024C205.017 25.768 204.501 26.812 204.309 28.156H213.777ZM233.727 19.768C236.103 19.768 238.023 20.524 239.487 22.036C240.951 23.524 241.683 25.612 241.683 28.3V40H236.643V28.984C236.643 27.4 236.247 26.188 235.455 25.348C234.663 24.484 233.583 24.052 232.215 24.052C230.823 24.052 229.719 24.484 228.903 25.348C228.111 26.188 227.715 27.4 227.715 28.984V40H222.675V20.056H227.715V22.54C228.387 21.676 229.239 21.004 230.271 20.524C231.327 20.02 232.479 19.768 233.727 19.768ZM245.18 30.028C245.18 27.964 245.6 26.164 246.44 24.628C247.28 23.068 248.444 21.868 249.932 21.028C251.42 20.164 253.124 19.732 255.044 19.732C257.516 19.732 259.556 20.356 261.164 21.604C262.796 22.828 263.888 24.556 264.44 26.788H259.004C258.716 25.924 258.224 25.252 257.528 24.772C256.856 24.268 256.016 24.016 255.008 24.016C253.568 24.016 252.428 24.544 251.588 25.6C250.748 26.632 250.328 28.108 250.328 30.028C250.328 31.924 250.748 33.4 251.588 34.456C252.428 35.488 253.568 36.004 255.008 36.004C257.048 36.004 258.38 35.092 259.004 33.268H264.44C263.888 35.428 262.796 37.144 261.164 38.416C259.532 39.688 257.492 40.324 255.044 40.324C253.124 40.324 251.42 39.904 249.932 39.064C248.444 38.2 247.28 37 246.44 35.464C245.6 33.904 245.18 32.092 245.18 30.028ZM286.672 29.596C286.672 30.316 286.624 30.964 286.528 31.54H271.948C272.068 32.98 272.572 34.108 273.46 34.924C274.348 35.74 275.44 36.148 276.736 36.148C278.608 36.148 279.94 35.344 280.732 33.736H286.168C285.592 35.656 284.488 37.24 282.856 38.488C281.224 39.712 279.22 40.324 276.844 40.324C274.924 40.324 273.196 39.904 271.66 39.064C270.148 38.2 268.96 36.988 268.096 35.428C267.256 33.868 266.836 32.068 266.836 30.028C266.836 27.964 267.256 26.152 268.096 24.592C268.936 23.032 270.112 21.832 271.624 20.992C273.136 20.152 274.876 19.732 276.844 19.732C278.74 19.732 280.432 20.14 281.92 20.956C283.432 21.772 284.596 22.936 285.412 24.448C286.252 25.936 286.672 27.652 286.672 29.596ZM281.452 28.156C281.428 26.86 280.96 25.828 280.048 25.06C279.136 24.268 278.02 23.872 276.7 23.872C275.452 23.872 274.396 24.256 273.532 25.024C272.692 25.768 272.176 26.812 271.984 28.156H281.452ZM91.136 78.952L88.592 75.904C87.888 76.08 87.168 76.168 86.432 76.168C84.864 76.168 83.424 75.8 82.112 75.064C80.8 74.328 79.76 73.312 78.992 72.016C78.224 70.704 77.84 69.224 77.84 67.576C77.84 65.944 78.224 64.48 78.992 63.184C79.76 61.872 80.8 60.848 82.112 60.112C83.424 59.376 84.864 59.008 86.432 59.008C88.016 59.008 89.456 59.376 90.752 60.112C92.064 60.848 93.096 61.872 93.848 63.184C94.616 64.48 95 65.944 95 67.576C95 69.064 94.68 70.424 94.04 71.656C93.416 72.872 92.56 73.864 91.472 74.632L95.312 78.952H91.136ZM81.296 67.576C81.296 68.696 81.512 69.68 81.944 70.528C82.376 71.376 82.976 72.032 83.744 72.496C84.528 72.944 85.424 73.168 86.432 73.168C87.44 73.168 88.328 72.944 89.096 72.496C89.864 72.032 90.464 71.376 90.896 70.528C91.328 69.68 91.544 68.696 91.544 67.576C91.544 66.456 91.328 65.48 90.896 64.648C90.464 63.8 89.864 63.152 89.096 62.704C88.328 62.256 87.44 62.032 86.432 62.032C85.424 62.032 84.528 62.256 83.744 62.704C82.976 63.152 82.376 63.8 81.944 64.648C81.512 65.48 81.296 66.456 81.296 67.576ZM110.099 62.704V76H106.715V74.32C106.283 74.896 105.715 75.352 105.011 75.688C104.323 76.008 103.571 76.168 102.755 76.168C101.715 76.168 100.795 75.952 99.9946 75.52C99.1946 75.072 98.5626 74.424 98.0986 73.576C97.6506 72.712 97.4266 71.688 97.4266 70.504V62.704H100.787V70.024C100.787 71.08 101.051 71.896 101.579 72.472C102.107 73.032 102.827 73.312 103.739 73.312C104.667 73.312 105.395 73.032 105.923 72.472C106.451 71.896 106.715 71.08 106.715 70.024V62.704H110.099ZM125.774 69.064C125.774 69.544 125.742 69.976 125.678 70.36H115.958C116.038 71.32 116.374 72.072 116.966 72.616C117.558 73.16 118.286 73.432 119.15 73.432C120.398 73.432 121.286 72.896 121.814 71.824H125.438C125.054 73.104 124.318 74.16 123.23 74.992C122.142 75.808 120.806 76.216 119.222 76.216C117.942 76.216 116.79 75.936 115.766 75.376C114.758 74.8 113.966 73.992 113.39 72.952C112.83 71.912 112.55 70.712 112.55 69.352C112.55 67.976 112.83 66.768 113.39 65.728C113.95 64.688 114.734 63.888 115.742 63.328C116.75 62.768 117.91 62.488 119.222 62.488C120.486 62.488 121.614 62.76 122.606 63.304C123.614 63.848 124.39 64.624 124.934 65.632C125.494 66.624 125.774 67.768 125.774 69.064ZM122.294 68.104C122.278 67.24 121.966 66.552 121.358 66.04C120.75 65.512 120.006 65.248 119.126 65.248C118.294 65.248 117.59 65.504 117.014 66.016C116.454 66.512 116.11 67.208 115.982 68.104H122.294ZM133.314 76.216C132.226 76.216 131.25 76.024 130.386 75.64C129.522 75.24 128.834 74.704 128.322 74.032C127.826 73.36 127.554 72.616 127.506 71.8H130.89C130.954 72.312 131.202 72.736 131.634 73.072C132.082 73.408 132.634 73.576 133.29 73.576C133.93 73.576 134.426 73.448 134.778 73.192C135.146 72.936 135.33 72.608 135.33 72.208C135.33 71.776 135.106 71.456 134.658 71.248C134.226 71.024 133.53 70.784 132.57 70.528C131.578 70.288 130.762 70.04 130.122 69.784C129.498 69.528 128.954 69.136 128.49 68.608C128.042 68.08 127.818 67.368 127.818 66.472C127.818 65.736 128.026 65.064 128.442 64.456C128.874 63.848 129.482 63.368 130.266 63.016C131.066 62.664 132.002 62.488 133.074 62.488C134.658 62.488 135.922 62.888 136.866 63.688C137.81 64.472 138.33 65.536 138.426 66.88H135.21C135.162 66.352 134.938 65.936 134.538 65.632C134.154 65.312 133.634 65.152 132.978 65.152C132.37 65.152 131.898 65.264 131.562 65.488C131.242 65.712 131.082 66.024 131.082 66.424C131.082 66.872 131.306 67.216 131.754 67.456C132.202 67.68 132.898 67.912 133.842 68.152C134.802 68.392 135.594 68.64 136.218 68.896C136.842 69.152 137.378 69.552 137.826 70.096C138.29 70.624 138.53 71.328 138.546 72.208C138.546 72.976 138.33 73.664 137.898 74.272C137.482 74.88 136.874 75.36 136.074 75.712C135.29 76.048 134.37 76.216 133.314 76.216ZM145.216 65.464V71.896C145.216 72.344 145.32 72.672 145.528 72.88C145.752 73.072 146.12 73.168 146.632 73.168H148.192V76H146.08C143.248 76 141.832 74.624 141.832 71.872V65.464H140.248V62.704H141.832V59.416H145.216V62.704H148.192V65.464H145.216Z" fill="#00C203"/>
<path d="M56.1412 16.7998C55.8671 15.7571 54.9318 15 53.8201 15C53.0631 15 52.3865 15.3527 51.9476 15.9008L51.9437 15.9047C48.8023 19.6058 44.6872 22.3907 39.9933 23.8742L39.8093 23.924C36.6276 24.959 32.9246 25.6969 29.0989 25.9921L28.9341 26.0017C24.5334 26.1819 20.4087 27.1689 16.6405 28.8154L16.859 28.7291C10.2159 32.3248 5.78068 39.2421 5.78068 47.1924C5.78068 47.3151 5.7826 47.4358 5.78452 47.5566V47.5374C5.80368 48.1469 5.84393 48.7468 5.91485 49.3487C6.19085 51.5509 6.76393 53.5519 7.59577 55.4111L7.5421 55.2769C4.72076 59.0087 2.25592 63.2618 0.339251 67.8043L0.193584 68.1953C0.0709167 68.4732 0 68.7971 0 69.1383C0 70.1196 0.592251 70.9649 1.4375 71.3348L1.45284 71.3406C1.72884 71.4632 2.04892 71.5361 2.38626 71.5361H2.39392H2.39584C3.37718 71.5361 4.22243 70.9457 4.59235 70.0986L4.5981 70.0832C6.25218 66.1483 8.11135 62.775 10.2714 59.6278L10.1449 59.8233C12.3472 62.7922 15.2088 65.1516 18.5208 66.7099L18.655 66.7674C21.4955 68.0669 24.819 68.8221 28.3169 68.8221C28.3667 68.8221 28.4166 68.8221 28.4645 68.8221H28.4568C32.2078 68.8067 35.7785 68.0439 39.0311 66.6773L38.849 66.7444C49.245 62.0447 56.6376 52.3368 57.9832 40.7812L57.9985 40.6297C58.2879 38.4198 58.4527 35.8649 58.4527 33.2716C58.4527 27.4047 57.6075 21.7333 56.0301 16.3762L56.1374 16.7978L56.1412 16.7998ZM53.2624 39.9186C52.1546 49.9237 45.887 58.242 37.2141 62.2325L37.0416 62.3035C34.5883 63.3787 31.7286 64.0055 28.7232 64.0055C25.8061 64.0055 23.0269 63.4151 20.4969 62.3495L20.6368 62.4012C17.5625 60.9484 15.0593 58.7193 13.3113 55.965L13.2691 55.8941C19.6976 49.1953 28.6293 44.9403 38.5558 44.6394L38.6114 44.6375C39.8304 44.5148 40.7753 43.4952 40.7753 42.2532C40.7753 40.9307 39.7019 39.8573 38.3794 39.8573C38.297 39.8573 38.2165 39.8611 38.1379 39.8688H38.1475C27.6595 40.302 18.2314 44.5225 11.1282 51.1887L11.1512 51.1676C10.9557 50.5025 10.7909 49.6994 10.6874 48.8753L10.6797 48.7948C10.6279 48.3348 10.5934 47.8709 10.5819 47.409C10.58 47.317 10.5781 47.2077 10.5781 47.0985C10.5781 41.0418 13.9457 35.7729 18.9118 33.0589L18.9961 33.0167C22.0628 31.7153 25.6202 30.9007 29.35 30.7665L29.4017 30.7646C33.7871 30.4254 37.8523 29.607 41.724 28.3535L41.3503 28.4589C45.6398 27.0405 49.3447 24.9169 52.5245 22.1971L52.4804 22.2354C53.2547 25.5609 53.6975 29.3789 53.6975 33.3004C53.6975 35.6311 53.5403 37.9272 53.2375 40.1755L53.2662 39.9129L53.2624 39.9186Z" fill="#00C203" stroke="#00C203" stroke-width="0.0011"/>
</svg>
